<?xml version="1.0" standalone="no"?><!DOCTYPE svg PUBLIC "-//W3C//DTD SVG 1.1//EN" "http://www.w3.org/Graphics/SVG/1.1/DTD/svg11.dtd"><svg t="1684875125520" class="icon" viewBox="0 0 1024 1024" version="1.1" xmlns="http://www.w3.org/2000/svg" p-id="1426" xmlns:xlink="http://www.w3.org/1999/xlink" width="200" height="200"><path d="M714.24 468.0704l148.48-148.48a102.4 102.4 0 0 0-144.896-144.7936l-148.3776 148.48-72.448-72.448a46.08 46.08 0 0 0-65.1264 65.1776l72.3968 72.3968-289.28 289.28a128.4608 128.4608 0 0 0-37.5296 87.296l-1.1776 43.6736a51.2 51.2 0 0 0 52.5312 52.5312l43.6736-1.1776a128.512 128.512 0 0 0 87.3472-37.5296l289.28-289.28 72.3456 72.448a46.08 46.08 0 1 0 65.1776-65.1776L714.24 468.0704z m-101.376 28.928l-289.2288 289.28c-13.9776 13.9264-32.768 22.016-52.5312 22.528l-43.6736 1.2288 1.1776-43.6736c0.512-19.7632 8.6528-38.5536 22.6304-52.5312l289.2288-289.2288 72.3968 72.3968z m213.6064-286.0032l0.8192 0.8192-1.6384-1.5872 0.8192 0.768z" fill="#2c2c2c" p-id="1427"></path></svg>